<svg width="128" height="128" viewBox="0 0 128 128" xmlns="http://www.w3.org/2000/svg">
  <path d="M64 0C28.7 0 0 28.7 0 64c0 11.3 3 22 8.1 31.2L0 128l33.6-8c8.9 4.9 19.2 7.6 30.1 7.6h.1c35.3 0 64-28.7 64-64S99.3 0 64 0z" fill="#25D366"/>
  <path d="M64 11.7c-28.9 0-52.3 23.4-52.3 52.3 0 9.9 2.8 19.5 8 27.8l1.2 2-5.2 19 19.5-5.1 1.9 1.1c8 4.8 17.2 7.3 26.6 7.3h.1c28.9 0 52.3-23.4 52.3-52.3S92.9 11.7 64 11.7z" fill="#fff"/>
  <path d="M48.5 37c-1.2-2.6-2.4-2.7-3.5-2.7-.9 0-1.9-.1-2.9-.1s-2.7.4-4.1 1.9c-1.4 1.5-5.4 5.3-5.4 12.9s5.5 15 6.3 16c.8 1 10.7 17.1 26.4 23.3 13 5.1 15.7 4.1 18.5 3.9 2.8-.3 9.1-3.7 10.4-7.3 1.3-3.6 1.3-6.6.9-7.3-.4-.6-1.4-1-2.9-1.8-1.5-.8-9.1-4.5-10.5-5-1.4-.5-2.4-.8-3.5.8-1 1.5-4 5-4.9 6-.9 1-1.8 1.1-3.3.4-1.5-.8-6.5-2.4-12.4-7.6-4.6-4.1-7.7-9.2-8.6-10.7-.9-1.5-.1-2.4.7-3.1.7-.7 1.5-1.8 2.3-2.7.8-.9 1-1.5 1.5-2.6.5-1 .3-1.9-.1-2.7-.4-.8-3.4-8.5-4.6-11.6z" fill="#25D366"/>
</svg>
