<svg xmlns="http://www.w3.org/2000/svg" viewBox="0 0 480 270" width="480" height="270">
  <defs>
    <linearGradient id="bg" x1="0%" y1="0%" x2="100%" y2="100%">
      <stop offset="0%" stop-color="#f0f4ff"/><stop offset="100%" stop-color="#e8eeff"/>
    </linearGradient>
    <linearGradient id="g1" x1="0%" y1="0%" x2="100%" y2="100%">
      <stop offset="0%" stop-color="#4f46e5"/><stop offset="100%" stop-color="#6366f1"/>
    </linearGradient>
    <linearGradient id="g2" x1="0%" y1="0%" x2="100%" y2="100%">
      <stop offset="0%" stop-color="#818cf8"/><stop offset="100%" stop-color="#a5b4fc"/>
    </linearGradient>
    <linearGradient id="g3" x1="0%" y1="0%" x2="100%" y2="100%">
      <stop offset="0%" stop-color="#3b82f6"/><stop offset="100%" stop-color="#60a5fa"/>
    </linearGradient>
    <linearGradient id="g4" x1="0%" y1="0%" x2="0%" y2="100%">
      <stop offset="0%" stop-color="#6366f1"/><stop offset="100%" stop-color="#4338ca"/>
    </linearGradient>
  </defs>
  <rect width="480" height="270" rx="12" fill="url(#bg)"/>
  <path d="M100 135L175 135M225 135L295 95M225 135L295 175M335 95L385 135M335 175L385 135" stroke="#c7d2fe" stroke-width="2.5" fill="none" stroke-linecap="round"/>
  <polygon points="172,131 180,135 172,139" fill="#c7d2fe"/>
  <polygon points="292,91 299,95 291,98" fill="#c7d2fe"/>
  <polygon points="291,172 299,175 292,179" fill="#c7d2fe"/>
  <polygon points="382,131 390,135 382,139" fill="#c7d2fe"/>
  <circle cx="80" cy="135" r="22" fill="url(#g1)" opacity="0.9"/>
  <circle cx="80" cy="135" r="12" fill="none" stroke="#fff" stroke-width="2" opacity="0.6"/>
  <rect x="178" y="113" width="44" height="44" rx="10" fill="url(#g4)"/>
  <rect x="188" y="123" width="24" height="24" rx="4" fill="none" stroke="#fff" stroke-width="1.5" opacity="0.5"/>
  <circle cx="315" cy="95" r="20" fill="url(#g3)"/>
  <circle cx="315" cy="95" r="10" fill="none" stroke="#fff" stroke-width="1.5" opacity="0.5"/>
  <circle cx="315" cy="175" r="20" fill="url(#g2)"/>
  <rect x="307" y="167" width="16" height="16" rx="3" fill="none" stroke="#fff" stroke-width="1.5" opacity="0.5"/>
  <rect x="388" y="113" width="44" height="44" rx="22" fill="url(#g1)"/>
  <circle cx="410" cy="135" r="10" fill="none" stroke="#fff" stroke-width="2" opacity="0.7"/>
  <circle cx="40" cy="60" r="4" fill="#a5b4fc" opacity="0.4"/>
  <circle cx="440" cy="50" r="3" fill="#818cf8" opacity="0.3"/>
  <circle cx="60" cy="230" r="3" fill="#6366f1" opacity="0.3"/>
  <circle cx="420" cy="220" r="5" fill="#a5b4fc" opacity="0.35"/>
  <circle cx="240" cy="40" r="3" fill="#6366f1" opacity="0.25"/>
  <circle cx="250" cy="240" r="4" fill="#818cf8" opacity="0.3"/>
</svg>
