<svg xmlns="http://www.w3.org/2000/svg" viewBox="0 0 1200 288">
  <defs>
    <linearGradient id="bg-detail" x1="0%" y1="0%" x2="100%" y2="100%">
      <stop offset="0%" stop-color="#dc2626"/>
      <stop offset="100%" stop-color="#fbbf24"/>
    </linearGradient>
  </defs>
  <rect width="1200" height="288" fill="url(#bg-detail)"/>
  <!-- Speed lines (left trail) -->
  <rect x="120" y="96" width="120" height="3" rx="1.5" fill="#fff" fill-opacity="0.3"/>
  <rect x="70" y="128" width="160" height="3" rx="1.5" fill="#fff" fill-opacity="0.25"/>
  <rect x="150" y="160" width="95" height="3" rx="1.5" fill="#fff" fill-opacity="0.22"/>
  <rect x="95" y="192" width="140" height="3" rx="1.5" fill="#fff" fill-opacity="0.2"/>
  <!-- Speed lines (right, balancing full width) -->
  <rect x="1010" y="70" width="130" height="3" rx="1.5" fill="#fff" fill-opacity="0.28"/>
  <rect x="1040" y="212" width="95" height="3" rx="1.5" fill="#fff" fill-opacity="0.22"/>
  <rect x="990" y="242" width="140" height="3" rx="1.5" fill="#fff" fill-opacity="0.18"/>
  <!-- Rocket body (centered) -->
  <path d="M600 45 Q570 85 570 140 L582 158 L618 158 L630 140 Q630 85 600 45" fill="#fff" fill-opacity="0.9" stroke="#fff" stroke-width="2"/>
  <!-- Window -->
  <circle cx="600" cy="105" r="16" fill="#f97316" fill-opacity="0.5" stroke="#fff" stroke-width="2"/>
  <!-- Side fins -->
  <path d="M570 140 L550 170 L575 155" fill="#fff" fill-opacity="0.6"/>
  <path d="M630 140 L650 170 L625 155" fill="#fff" fill-opacity="0.6"/>
  <!-- Flame -->
  <path d="M582 158 L578 185 L588 175 L600 195 L612 175 L622 185 L618 158" fill="#fbbf24" fill-opacity="0.9"/>
  <!-- Exhaust particles -->
  <circle cx="600" cy="210" r="5" fill="#fff" fill-opacity="0.5"/>
  <circle cx="590" cy="225" r="3.5" fill="#fff" fill-opacity="0.35"/>
  <circle cx="610" cy="225" r="3.5" fill="#fff" fill-opacity="0.35"/>
  <circle cx="600" cy="240" r="2.5" fill="#fff" fill-opacity="0.2"/>
  <!-- Progress terminal (right) -->
  <rect x="910" y="109" width="100" height="70" rx="8" fill="#fff" fill-opacity="0.15"/>
  <rect x="922" y="124" width="45" height="5" rx="2.5" fill="#10b981" fill-opacity="0.8"/>
  <rect x="922" y="136" width="65" height="5" rx="2.5" fill="#fff" fill-opacity="0.5"/>
  <rect x="922" y="148" width="35" height="5" rx="2.5" fill="#fff" fill-opacity="0.35"/>
  <rect x="922" y="160" width="55" height="5" rx="2.5" fill="#10b981" fill-opacity="0.6"/>
</svg>
