<svg xmlns="http://www.w3.org/2000/svg" viewBox="0 0 1200 288">
<defs>
<linearGradient id="b-detail" x1="0%" y1="0%" x2="100%" y2="100%"><stop offset="0%" stop-color="#FFF8E1"/><stop offset="100%" stop-color="#FFE082"/></linearGradient>
<linearGradient id="f-detail"><stop offset="0%" stop-color="#FFB300"/><stop offset="100%" stop-color="#FF8F00"/></linearGradient>
</defs>
<rect width="1200" height="288" fill="url(#b-detail)"/>
<!-- full-width scattered accent glyphs so side-crop only trims decoration -->
<g opacity=".5"><circle cx="60" cy="46" r="3" fill="#FF8F00"/><circle cx="150" cy="252" r="3" fill="#FFB300"/><circle cx="1050" cy="42" r="3" fill="#FFB300"/><circle cx="1150" cy="250" r="3" fill="#FF8F00"/></g>
<!-- left floating folder + dots -->
<rect x="60" y="120" width="20" height="15" rx="3" fill="url(#f-detail)"/><rect x="60" y="120" width="11" height="4" rx="2" fill="#FF6F00"/>
<circle cx="92" cy="98" r="3" fill="#90A4AE"/><circle cx="80" cy="172" r="3" fill="#90A4AE"/>
<!-- right floating folder + dots -->
<rect x="1112" y="118" width="20" height="15" rx="3" fill="url(#f-detail)"/><rect x="1112" y="118" width="11" height="4" rx="2" fill="#FF6F00"/>
<circle cx="1104" cy="96" r="3" fill="#90A4AE"/><circle cx="1128" cy="170" r="3" fill="#90A4AE"/>

<!-- LEFT PANEL: file tree -->
<rect x="180" y="44" width="300" height="200" rx="12" fill="#fff" opacity=".95"/>
<rect x="204" y="70" width="18" height="14" rx="3" fill="url(#f-detail)"/><rect x="204" y="70" width="10" height="4" rx="2" fill="#FF6F00"/>
<rect x="230" y="74" width="60" height="6" rx="3" fill="#B0BEC5"/>
<rect x="204" y="100" width="18" height="14" rx="3" fill="url(#f-detail)"/><rect x="204" y="100" width="10" height="4" rx="2" fill="#FF6F00"/>
<rect x="230" y="104" width="44" height="6" rx="3" fill="#B0BEC5"/>
<circle cx="222" cy="135" r="3" fill="#90A4AE"/><rect x="234" y="132" width="66" height="6" rx="3" fill="#CFD8DC"/>
<circle cx="222" cy="159" r="3" fill="#90A4AE"/><rect x="234" y="156" width="80" height="6" rx="3" fill="#CFD8DC"/>
<circle cx="222" cy="183" r="3" fill="#90A4AE"/><rect x="234" y="180" width="52" height="6" rx="3" fill="#CFD8DC"/>
<circle cx="222" cy="207" r="3" fill="#90A4AE"/><rect x="234" y="204" width="70" height="6" rx="3" fill="#CFD8DC"/>
<path d="M210 84V100M216 116V207M216 135h6M216 159h6M216 183h6M216 207h6" stroke="#CFD8DC" fill="none"/>

<!-- dashed connector between panels -->
<line x1="480" y1="144" x2="520" y2="144" stroke="#FF8F00" stroke-width="1.5" stroke-dasharray="4 3" opacity=".5"/>

<!-- RIGHT PANEL: editor -->
<rect x="520" y="44" width="500" height="200" rx="12" fill="#fff" opacity=".95"/>
<rect x="520" y="44" width="500" height="32" rx="12" fill="#F5F5F5"/><rect x="520" y="60" width="500" height="16" fill="#F5F5F5"/>
<rect x="536" y="52" width="64" height="18" rx="4" fill="#fff"/>
<g fill="#BDBDBD"><circle cx="532" cy="96" r="2"/><circle cx="532" cy="114" r="2"/><circle cx="532" cy="132" r="2"/><circle cx="532" cy="150" r="2"/><circle cx="532" cy="168" r="2"/><circle cx="532" cy="186" r="2"/><circle cx="532" cy="204" r="2"/><circle cx="532" cy="222" r="2"/></g>
<g fill="#7C4DFF"><rect x="548" y="96" width="70" height="6" rx="3"/><rect x="668" y="114" width="40" height="6" rx="3"/><rect x="758" y="132" width="80" height="6" rx="3"/><rect x="572" y="150" width="46" height="6" rx="3"/><rect x="644" y="168" width="56" height="6" rx="3"/><rect x="846" y="168" width="70" height="6" rx="3"/><rect x="712" y="186" width="44" height="6" rx="3"/><rect x="750" y="204" width="60" height="6" rx="3"/><rect x="548" y="222" width="32" height="6" rx="3"/></g>
<g fill="#66BB6A"><rect x="628" y="96" width="50" height="6" rx="3"/><rect x="848" y="96" width="80" height="6" rx="3"/><rect x="720" y="114" width="60" height="6" rx="3"/><rect x="560" y="132" width="54" height="6" rx="3"/><rect x="628" y="150" width="52" height="6" rx="3"/><rect x="858" y="150" width="90" height="6" rx="3"/><rect x="712" y="168" width="40" height="6" rx="3"/><rect x="768" y="186" width="96" height="6" rx="3"/><rect x="560" y="204" width="48" height="6" rx="3"/><rect x="910" y="204" width="60" height="6" rx="3"/><rect x="590" y="222" width="60" height="6" rx="3"/></g>
<g fill="#FF9800"><rect x="690" y="96" width="34" height="6" rx="3"/><rect x="792" y="114" width="44" height="6" rx="3"/><rect x="624" y="132" width="64" height="6" rx="3"/><rect x="850" y="132" width="60" height="6" rx="3"/><rect x="690" y="150" width="34" height="6" rx="3"/><rect x="764" y="168" width="70" height="6" rx="3"/><rect x="572" y="186" width="52" height="6" rx="3"/><rect x="618" y="204" width="32" height="6" rx="3"/><rect x="660" y="222" width="46" height="6" rx="3"/><rect x="848" y="222" width="100" height="6" rx="3"/></g>
<g fill="#42A5F5"><rect x="736" y="96" width="90" height="6" rx="3"/><rect x="560" y="114" width="96" height="6" rx="3"/><rect x="848" y="114" width="100" height="6" rx="3"/><rect x="700" y="132" width="46" height="6" rx="3"/><rect x="736" y="150" width="110" height="6" rx="3"/><rect x="560" y="168" width="74" height="6" rx="3"/><rect x="632" y="186" width="68" height="6" rx="3"/><rect x="876" y="186" width="80" height="6" rx="3"/><rect x="660" y="204" width="78" height="6" rx="3"/><rect x="718" y="222" width="120" height="6" rx="3"/></g>
</svg>
