<svg xmlns="http://www.w3.org/2000/svg" viewBox="-14.245 -14.245 275.708 272.257" fill="none">
  <path d="M178.186 23.9057C200.531 46.9413 202.216 80.9205 210.073 110.029C216.33 133.209 225.435 133.169 239.262 147.164C265.339 173.555 220.644 183.957 200.814 179.007C191.953 204.81 171.303 243.178 138.527 237.08C134.387 236.31 129.193 231.762 127.374 231.762C111.553 231.762 100.614 246.718 81.4621 243.243C67.9837 240.803 61.7216 217.861 61.7216 217.861C61.7216 217.861 50.6635 221.937 45.6042 221.996C28.2144 222.195 -0.0991372 215.396 0.000261007 193.479C0.0648698 178.216 16.063 173.117 24.7604 162.606C53.3076 128.11 34.4318 81.3628 53.8294 42.0657C77.4911 -5.87402 141.325 -14.0992 178.191 23.9057H178.186Z" fill="#ffffff" stroke="#000000" stroke-width="26.49" stroke-linejoin="round" paint-order="stroke"/>
  <path d="M176.874 77.9035C175.398 77.6302 174.026 77.7495 172.799 78.0229C171.417 78.3161 170.204 78.9025 169.126 79.7424C168.047 80.5823 167.143 81.5564 166.382 82.7492C165.677 83.8525 165.115 85.1149 164.658 86.4618C164.221 87.7142 163.843 89.0362 163.604 90.4228C163.366 91.8044 163.306 93.1313 163.256 94.508C163.207 95.8847 163.241 97.2564 163.386 98.6032C163.53 99.9501 163.838 101.317 164.161 102.634C164.484 103.946 164.832 105.342 165.378 106.545C165.96 107.842 166.686 109.025 167.486 110.074C168.35 111.192 169.419 112.047 170.547 112.758C171.849 113.568 173.067 114.104 174.23 114.457C175.701 114.905 177.008 114.994 178.221 114.785C179.597 114.562 180.795 114.01 181.849 113.13C182.828 112.3 183.698 111.257 184.408 109.989C185.034 108.871 185.502 107.579 185.919 106.212C186.302 104.96 186.635 103.633 186.834 102.246C187.032 100.86 187.226 99.5674 187.261 98.1907C187.296 96.8091 187.112 95.4771 186.978 94.1154C186.848 92.7536 186.665 91.3919 186.366 90.0947C186.068 88.7976 185.641 87.4359 185.149 86.2083C184.622 84.8863 184.105 83.619 183.375 82.5455C182.579 81.3726 181.6 80.3885 180.557 79.6132C179.513 78.8429 178.231 78.167 176.859 77.9284L176.874 77.9035Z" fill="#000000"/>
  <path d="M135.59 78.4358C134.114 78.1624 132.752 78.3066 131.525 78.5799C130.143 78.8731 128.97 79.4745 127.897 80.3045C126.823 81.1295 125.879 82.0737 125.123 83.2715C124.418 84.3748 123.786 85.6024 123.319 86.9492C122.882 88.2016 122.683 89.5734 122.444 90.9451C122.206 92.3167 122.052 93.6337 122.017 95.0154C121.982 96.397 122.112 97.7389 122.256 99.1006C122.4 100.462 122.544 101.834 122.867 103.151C123.19 104.463 123.632 105.825 124.169 107.028C124.751 108.325 125.491 109.483 126.296 110.516C127.161 111.635 128.085 112.673 129.214 113.384C130.516 114.194 131.793 114.661 132.951 115.014C134.422 115.462 135.744 115.536 136.967 115.332C138.343 115.109 139.571 114.547 140.624 113.662C141.604 112.833 142.419 111.734 143.119 110.477C143.746 109.359 144.362 108.126 144.774 106.764C145.157 105.512 145.371 104.15 145.57 102.763C145.768 101.377 145.937 100.085 145.972 98.708C146.007 97.3314 145.987 95.9746 145.858 94.6277C145.729 93.2809 145.351 91.939 145.053 90.627C144.754 89.3149 144.436 87.9333 143.959 86.7057C143.432 85.3837 142.861 84.1412 142.13 83.0677C141.335 81.8849 140.326 80.9605 139.268 80.1752C138.209 79.39 136.981 78.7042 135.615 78.4507L135.6 78.4358H135.59Z" fill="#000000"/>
</svg>
