<svg xmlns="http://www.w3.org/2000/svg" viewBox="0 0 480 270" width="480" height="270">
  <defs>
    <linearGradient id="bg-d" x1="0%" y1="0%" x2="100%" y2="100%">
      <stop offset="0%" stop-color="#0d1f18"/>
      <stop offset="100%" stop-color="#122a20"/>
    </linearGradient>
    <radialGradient id="sweep-d" cx="50%" cy="50%" r="50%">
      <stop offset="0%" stop-color="#34d399" stop-opacity="0.4"/>
      <stop offset="100%" stop-color="#34d399" stop-opacity="0"/>
    </radialGradient>
  </defs>
  <rect width="480" height="270" rx="12" fill="url(#bg-d)"/>
  <circle cx="60" cy="40" r="20" fill="#065f46" opacity="0.4"/>
  <circle cx="420" cy="230" r="30" fill="#047857" opacity="0.3"/>

  <g transform="translate(175,140)">
    <circle r="95" fill="none" stroke="#34d399" stroke-width="1.2" opacity="0.2"/>
    <circle r="68" fill="none" stroke="#34d399" stroke-width="1.2" opacity="0.3"/>
    <circle r="42" fill="none" stroke="#34d399" stroke-width="1.2" opacity="0.4"/>
    <circle r="16" fill="none" stroke="#34d399" stroke-width="1.4" opacity="0.55"/>
    <path d="M0,0 L0,-95 A95,95 0 0,1 82,-47.5 Z" fill="url(#sweep-d)"/>
    <line x1="0" y1="0" x2="0" y2="-95" stroke="#34d399" stroke-width="2.4" stroke-linecap="round"/>
    <circle r="4" fill="#34d399"/>
    <circle cx="55" cy="-38" r="4.5" fill="#f87171"/>
    <circle cx="-30" cy="20" r="4" fill="#fbbf24"/>
    <circle cx="20" cy="60" r="3.5" fill="#34d399"/>
    <circle cx="-65" cy="-15" r="3.5" fill="#34d399" opacity="0.5"/>
  </g>

  <rect x="300" y="55" width="150" height="30" rx="6" fill="#14261e" stroke="#1f4a3a" stroke-width="1.5"/>
  <circle cx="316" cy="70" r="4" fill="#f87171"/>
  <rect x="328" y="64" width="90" height="6" rx="3" fill="#a7f3d0"/>
  <rect x="328" y="74" width="60" height="5" rx="2.5" fill="#1f4a3a"/>

  <rect x="300" y="93" width="150" height="30" rx="6" fill="#14261e" stroke="#1f4a3a" stroke-width="1.5"/>
  <circle cx="316" cy="108" r="4" fill="#fbbf24"/>
  <rect x="328" y="102" width="100" height="6" rx="3" fill="#a7f3d0"/>
  <rect x="328" y="112" width="45" height="5" rx="2.5" fill="#1f4a3a"/>

  <rect x="300" y="131" width="150" height="30" rx="6" fill="#14261e" stroke="#1f4a3a" stroke-width="1.5" opacity="0.6"/>
  <circle cx="316" cy="146" r="4" fill="#34d399" opacity="0.6"/>
  <rect x="328" y="140" width="80" height="6" rx="3" fill="#a7f3d0" opacity="0.5"/>
  <rect x="328" y="150" width="55" height="5" rx="2.5" fill="#1f4a3a" opacity="0.5"/>

  <circle cx="405" cy="205" r="18" fill="#34d399"/>
  <circle cx="405" cy="205" r="14" fill="#059669"/>
  <path d="M396 205 L402 211 L414 199" stroke="#0d1f18" stroke-width="3" fill="none" stroke-linecap="round" stroke-linejoin="round"/>
</svg>
