<svg xmlns="http://www.w3.org/2000/svg" viewBox="0 0 480 270" width="480" height="270">
  <defs>
    <linearGradient id="dc-bg-d" x1="0%" y1="0%" x2="100%" y2="100%">
      <stop offset="0%" stop-color="#171225"/>
      <stop offset="100%" stop-color="#241a3a"/>
    </linearGradient>
  </defs>
  <rect width="480" height="270" rx="12" fill="url(#dc-bg-d)"/>
  <circle cx="58" cy="40" r="20" fill="#4c1d95" opacity="0.45"/>
  <circle cx="432" cy="234" r="30" fill="#6d28d9" opacity="0.35"/>

  <!-- Wireframe screen under critique (left) -->
  <g transform="translate(40,46)">
    <rect x="0" y="0" width="212" height="178" rx="12" fill="#241b38" stroke="#4c1d95" stroke-width="2"/>
    <path d="M0,12 Q0,0 12,0 L200,0 Q212,0 212,12 L212,26 L0,26 Z" fill="#2e2248"/>
    <circle cx="16" cy="13" r="3" fill="#6d28d9"/>
    <circle cx="28" cy="13" r="3" fill="#6d28d9"/>
    <circle cx="40" cy="13" r="3" fill="#6d28d9"/>
    <!-- content blocks -->
    <rect x="18" y="40" width="120" height="12" rx="4" fill="#3b2a5c"/>
    <rect x="18" y="60" width="176" height="42" rx="6" fill="#1e1730" stroke="#3b2a5c" stroke-width="1.5"/>
    <rect x="18" y="112" width="150" height="8" rx="4" fill="#332552"/>
    <rect x="18" y="126" width="110" height="8" rx="4" fill="#332552"/>
    <rect x="18" y="152" width="70" height="18" rx="9" fill="#6d28d9"/>
    <!-- numbered critique pins -->
    <circle cx="150" cy="46" r="12" fill="#f87171"/>
    <text x="150" y="50.5" font-family="Arial, Helvetica, sans-serif" font-size="13" font-weight="700" fill="#171225" text-anchor="middle">1</text>
    <circle cx="182" cy="81" r="12" fill="#fbbf24"/>
    <text x="182" y="85.5" font-family="Arial, Helvetica, sans-serif" font-size="13" font-weight="700" fill="#171225" text-anchor="middle">2</text>
    <circle cx="88" cy="161" r="12" fill="#a78bfa"/>
    <text x="88" y="165.5" font-family="Arial, Helvetica, sans-serif" font-size="13" font-weight="700" fill="#171225" text-anchor="middle">3</text>
  </g>

  <!-- Findings list (right) -->
  <g>
    <rect x="292" y="58" width="150" height="40" rx="8" fill="#241b38" stroke="#4c1d95" stroke-width="1.5"/>
    <circle cx="310" cy="78" r="9" fill="#f87171"/>
    <text x="310" y="81.5" font-family="Arial, Helvetica, sans-serif" font-size="10" font-weight="700" fill="#171225" text-anchor="middle">1</text>
    <rect x="327" y="70" width="100" height="7" rx="3.5" fill="#ddd6fe"/>
    <rect x="327" y="82" width="66" height="6" rx="3" fill="#4c1d95"/>

    <rect x="292" y="106" width="150" height="40" rx="8" fill="#241b38" stroke="#4c1d95" stroke-width="1.5"/>
    <circle cx="310" cy="126" r="9" fill="#fbbf24"/>
    <text x="310" y="129.5" font-family="Arial, Helvetica, sans-serif" font-size="10" font-weight="700" fill="#171225" text-anchor="middle">2</text>
    <rect x="327" y="118" width="86" height="7" rx="3.5" fill="#ddd6fe"/>
    <rect x="327" y="130" width="60" height="6" rx="3" fill="#4c1d95"/>

    <rect x="292" y="154" width="150" height="40" rx="8" fill="#241b38" stroke="#4c1d95" stroke-width="1.5" opacity="0.7"/>
    <circle cx="310" cy="174" r="9" fill="#a78bfa" opacity="0.9"/>
    <text x="310" y="177.5" font-family="Arial, Helvetica, sans-serif" font-size="10" font-weight="700" fill="#171225" text-anchor="middle">3</text>
    <rect x="327" y="166" width="94" height="7" rx="3.5" fill="#ddd6fe" opacity="0.55"/>
    <rect x="327" y="178" width="54" height="6" rx="3" fill="#4c1d95" opacity="0.8"/>
  </g>
</svg>
