<svg xmlns="http://www.w3.org/2000/svg" viewBox="0 0 1200 288"><defs><linearGradient id="b" x2="1" y2="1"><stop stop-color="#083344"/><stop offset=".55" stop-color="#172554"/><stop offset="1" stop-color="#2e1065"/></linearGradient><filter id="s"><feDropShadow dy="10" stdDeviation="14" flood-color="#000" flood-opacity=".45"/></filter></defs><rect width="1200" height="288" fill="url(#b)"/><ellipse cx="600" cy="144" rx="285" ry="104" fill="none" stroke="#4338ca" stroke-dasharray="3 8"/><g stroke="#6366f1" stroke-width="2" opacity=".7"><path d="M600 142L250 76M600 142l350-68M600 142l300 86M600 142l-300 84"/></g><g filter="url(#s)"><rect x="510" y="88" width="180" height="104" rx="25" fill="#17172d" stroke="#818cf8"/><path d="M560 192l-12 26 35-26" fill="#17172d" stroke="#818cf8"/></g><g fill="#a78bfa"><circle cx="560" cy="140" r="9"/><circle cx="600" cy="140" r="9" opacity=".7"/><circle cx="640" cy="140" r="9" opacity=".4"/></g><g fill="#17172d" stroke-width="4"><circle cx="250" cy="76" r="30" stroke="#22d3ee"/><circle cx="950" cy="74" r="30" stroke="#a78bfa"/><circle cx="900" cy="228" r="30" stroke="#fbbf24"/><circle cx="300" cy="226" r="30" stroke="#f472b6"/></g><g fill="#cbd5e1"><circle cx="250" cy="69" r="8"/><path d="M235 90q15-15 30 0"/><circle cx="950" cy="67" r="8"/><path d="M935 88q15-15 30 0"/><circle cx="900" cy="221" r="8"/><path d="M885 242q15-15 30 0"/><circle cx="300" cy="219" r="8"/><path d="M285 240q15-15 30 0"/></g></svg>
