<svg xmlns="http://www.w3.org/2000/svg" viewBox="0 0 480 270" fill="none">
<rect width="480" height="270" fill="#1a1b26"/>
<rect x="24" y="24" width="148" height="222" rx="10" fill="#1e293b" stroke="#334155" stroke-width="1.5"/>
<rect x="38" y="40" width="86" height="8" rx="4" fill="#334155"/>
<rect x="132" y="38" width="26" height="12" rx="4" fill="#273449"/>
<rect x="34" y="62" width="128" height="30" rx="6" fill="#312e81" opacity=".5"/>
<rect x="42" y="69" width="74" height="7" rx="3.5" fill="#818CF8"/>
<rect x="42" y="81" width="44" height="5" rx="2.5" fill="#4F46E5" opacity=".7"/>
<rect x="42" y="105" width="82" height="7" rx="3.5" fill="#64748B"/>
<rect x="42" y="117" width="48" height="5" rx="2.5" fill="#3F4C5F"/>
<rect x="42" y="139" width="68" height="7" rx="3.5" fill="#64748B"/>
<rect x="42" y="151" width="52" height="5" rx="2.5" fill="#3F4C5F"/>
<rect x="42" y="173" width="88" height="7" rx="3.5" fill="#64748B"/>
<rect x="42" y="185" width="40" height="5" rx="2.5" fill="#3F4C5F"/>
<rect x="34" y="212" width="128" height="1" fill="#334155"/>
<rect x="42" y="222" width="46" height="6" rx="3" fill="#3F4C5F"/>
<rect x="188" y="24" width="268" height="222" rx="10" fill="#1e293b" stroke="#334155" stroke-width="1.5"/>
<rect x="206" y="46" width="150" height="13" rx="4" fill="#E2E8F0"/>
<rect x="206" y="70" width="222" height="6" rx="3" fill="#475569"/>
<rect x="206" y="83" width="204" height="6" rx="3" fill="#475569"/>
<rect x="206" y="96" width="168" height="6" rx="3" fill="#475569"/>
<rect x="206" y="122" width="11" height="11" rx="3" stroke="#818CF8" stroke-width="1.6"/>
<path d="M208.6 127.8 L211 130.2 L214.6 124.8" stroke="#818CF8" stroke-width="1.6" stroke-linecap="round" stroke-linejoin="round"/>
<rect x="224" y="125" width="120" height="6" rx="3" fill="#94A3B8"/>
<rect x="212" y="142" width="1.4" height="44" rx="0.7" fill="#334155"/>
<rect x="230" y="144" width="11" height="11" rx="3" stroke="#64748B" stroke-width="1.6"/>
<rect x="248" y="147" width="96" height="6" rx="3" fill="#64748B"/>
<rect x="230" y="166" width="11" height="11" rx="3" stroke="#64748B" stroke-width="1.6"/>
<rect x="248" y="169" width="78" height="6" rx="3" fill="#64748B"/>
<rect x="206" y="200" width="60" height="6" rx="3" fill="#4F46E5"/>
<rect x="206" y="214" width="140" height="6" rx="3" fill="#312e81"/>
<rect x="206" y="226" width="112" height="6" rx="3" fill="#312e81"/>
</svg>
